PathFileType	4	(x/y/z)	A01_PREF_T0017.trc
DataRate	CameraRate	NumFrames	NumMarkers	Units	OrigDataRate	OrigDataStartFrame	OrigNumFrames
240	240	4	48	mm	240	217	289
Frame#	Time	TOP_HEAD			R_AC			L_AC			R_ASIS			L_ASIS			R_PSIS			L_PSIS			SACRAL			L_IC			R_IC			L_GT			R_GT			R_LAT_KNEE			R_MED_KNEE			L_MED_KNEE			L_LAT_KNEE			R_TOE			L_TOE			R_1ST_MET			L_1ST_MET			L_5TH_MET			R_5TH_MET			R_LAT_ANK			R_MED_ANK			L_MED_ANK			L_LAT_ANK			L_HEEL_SUP			R_HEEL_SUP			L_HEEL_LAT			R_HEEL_LAT			L_HEEL_MED			R_HEEL_MED			R_SHANK_PROX_POST			R_SHANK_PROX_ANT			R_SHANK_DIST_ANT			R_SHANK_DIST_POST			R_THIGH_PROX_POST			R_THIGH_PROX_ANT			R_THIGH_DIST_ANT			R_THIGH_DIST_POST			L_SHANK_PROX_ANT			L_SHANK_PROX_POST			L_SHANK_DIST_POST			L_SHANK_DIST_ANT			L_THIGH_PROX_ANT			L_THIGH_PROX_POST			L_THIGH_DIST_POST			L_THIGH_DIST_ANT			
		X1	Y1	Z1	X2	Y2	Z2	X3	Y3	Z3	X4	Y4	Z4	X5	Y5	Z5	X6	Y6	Z6	X7	Y7	Z7	X8	Y8	Z8	X9	Y9	Z9	X10	Y10	Z10	X11	Y11	Z11	X12	Y12	Z12	X13	Y13	Z13	X14	Y14	Z14	X15	Y15	Z15	X16	Y16	Z16	X17	Y17	Z17	X18	Y18	Z18	X19	Y19	Z19	X20	Y20	Z20	X21	Y21	Z21	X22	Y22	Z22	X23	Y23	Z23	X24	Y24	Z24	X25	Y25	Z25	X26	Y26	Z26	X27	Y27	Z27	X28	Y28	Z28	X29	Y29	Z29	X30	Y30	Z30	X31	Y31	Z31	X32	Y32	Z32	X33	Y33	Z33	X34	Y34	Z34	X35	Y35	Z35	X36	Y36	Z36	X37	Y37	Z37	X38	Y38	Z38	X39	Y39	Z39	X40	Y40	Z40	X41	Y41	Z41	X42	Y42	Z42	X43	Y43	Z43	X44	Y44	Z44	X45	Y45	Z45	X46	Y46	Z46	X47	Y47	Z47	X48	Y48	Z48	

217	0.90312	687.04	1749	348.72	448.73	1550.5	575.16	431.07	1560.3	112.47	446.71	1090.5	538.66	435.88	1038.8	185.5	224.01	1095.1	423.8	229.39	1094.1	291.7	211.46	1064.3	356	406.73	1157.7	149.78	414.27	1186.7	552.69	376.75	959.98	144.13	389.06	978.15	578.09	441.42	571.42	499.41	473.21	577.7	370.62	518.97	547.99	320.4	480.72	591.04	172.72	601.52	66.94	377.64	285.64	88.633	187.68	514.74	56.522	333.83	220.36	112.6	260.72	171.48	149.15	145.81	489.9	45.28	470.15	378.18	112.04	449.32	381.98	121.8	346.61	185.12	260.87	275.12	146.15	282.92	217.45	61.702	297.33	280.37	274.91	85.311	394.88	41.601	277.33	247.56	282.47	60.282	428.39	58.427	259.14	306.57	284.08	58.686	366.79	340.25	401.75	495.41	409.79	386.83	512.39	407.37	313.77	491.26	351.29	320.34	481.43	367.54	831.18	552.15	431.52	859.79	562.79	449.01	770.48	550.6	386.83	745	537.56	461.6	498.1	175.04	419.36	534.93	176.87	374.43	490.79	187.74	419.81	460.65	183.89	478.21	831.96	170.39	409.15	823.93	152.09	436.03	752.02	157.79	499.6	760.8	172.82
218	0.90731	692.12	1750.2	348.5	453.94	1551.9	575.17	435.67	1561.3	112.47	451.62	1091.4	538.88	440.97	1040.2	185.66	228.98	1096.3	423.88	234.45	1095.2	291.81	216.48	1065.5	356.07	411.58	1158.9	149.89	419.4	1187.9	552.83	382.2	961.26	144.21	393.55	979.07	578.19	442.99	572.01	499.5	474.86	578.13	370.72	526.84	550.79	320.9	488.92	592.78	172.81	601.63	66.829	377.66	301.83	87.344	187.82	514.87	56.5	333.89	235.64	110.49	260.29	187.04	145.89	144.9	489.97	45.269	470.17	378.6	112.58	449.46	382.46	122.41	346.77	197.98	258.22	274	159.02	279.45	215.97	73.882	292.69	278.15	275.31	86.35	394.99	54.413	272.26	245.24	282.79	61.209	428.46	71.101	254.5	304.43	284.46	59.68	366.87	341.27	402.63	495.38	410.74	387.51	512.49	408.15	314.46	491.38	352.08	321.19	481.47	371.02	832.36	552.18	435.16	860.5	562.86	452.08	771.05	550.67	389.7	746.04	537.59	471.28	499.55	175.25	428.47	535.71	176.66	384.19	490.85	187.39	430.06	461.47	183.93	484.68	833.92	170.61	415.75	825.43	152.13	443.11	753.72	157.88	506.58	762.95	173.04
219	0.91149	697.19	1751.3	348.28	459.15	1553.2	575.18	440.27	1562.2	112.48	456.48	1092.3	539.12	446.07	1041.5	185.84	233.93	1097.5	423.91	239.51	1096.2	291.87	221.48	1066.6	356.09	416.45	1160	149.99	424.49	1189.1	553	387.66	962.53	144.3	397.98	980	578.29	444.53	572.63	499.59	476.5	578.59	370.83	534.58	553.56	321.46	496.99	594.51	172.94	601.74	66.723	377.69	318.2	86.07	188	515	56.48	333.95	251.1	108.35	259.89	202.8	142.58	144.02	490.05	45.258	470.2	379.03	113.14	449.61	382.96	123.05	346.94	210.96	255.47	272.89	172.02	275.86	214.51	86.195	287.88	275.94	275.73	87.423	395.1	67.381	267.02	242.93	283.1	62.169	428.53	83.926	249.69	302.31	284.81	60.715	366.95	342.27	403.53	495.36	411.68	388.23	512.6	408.91	315.17	491.5	352.86	322.06	481.51	374.45	833.56	552.2	438.79	861.23	562.94	455.12	771.65	550.74	392.53	747.1	537.62	480.89	501.01	175.52	437.49	536.44	176.51	393.91	490.87	187.08	440.26	462.27	184.01	491.1	835.86	170.85	422.31	826.92	152.19	450.12	755.42	158	513.5	765.07	173.29
220	0.91567	702.26	1752.4	348.06	464.35	1554.6	575.17	444.87	1563.2	112.47	461.29	1093.2	539.38	451.18	1042.9	186.04	238.85	1098.7	423.89	244.56	1097.3	291.89	226.47	1067.7	356.06	421.35	1161.1	150.08	429.54	1190.3	553.2	393.14	963.78	144.39	402.38	980.92	578.39	446.04	573.28	499.68	478.14	579.06	370.94	542.19	556.3	322.05	504.93	596.21	173.12	601.84	66.621	377.71	334.73	84.822	188.2	515.14	56.461	334.02	266.74	106.17	259.51	218.74	139.24	143.17	490.13	45.246	470.22	379.48	113.72	449.76	383.48	123.71	347.12	224.06	252.62	271.82	185.14	272.17	213.08	98.647	282.9	273.75	276.15	88.528	395.21	80.51	261.6	240.65	283.42	63.162	428.61	96.907	244.71	300.22	285.12	61.789	367.03	343.25	404.46	495.32	412.59	388.97	512.7	409.65	315.92	491.62	353.62	322.95	481.55	377.84	834.78	552.21	442.4	861.97	563.02	458.13	772.27	550.81	395.34	748.18	537.64	490.41	502.46	175.82	446.42	537.14	176.4	403.57	490.83	186.81	450.41	463.06	184.14	497.49	837.77	171.11	428.83	828.4	152.27	457.08	757.09	158.14	520.37	767.16	173.57
